Coordinates
version=1
nRows=14
nColumns=24
inDegrees=yes

Units are S.I. units (second, meters, Newtons, ...)
Angles are in degrees.

endheader
time	pelvis_tilt	pelvis_list	pelvis_rotation	pelvis_tx	pelvis_ty	pelvis_tz	hip_flexion_r	hip_adduction_r	hip_rotation_r	knee_angle_r	ankle_angle_r	subtalar_angle_r	mtp_angle_r	hip_flexion_l	hip_adduction_l	hip_rotation_l	knee_angle_l	ankle_angle_l	subtalar_angle_l	mtp_angle_l	lumbar_extension	lumbar_bending	lumbar_rotation
     22.88000000	     -1.66239895	     -3.04155080	   -270.04569409	     -0.01396880	      0.12242807	     -1.86529965	     26.45285041	    -10.98254200	    -13.53106343	    -60.75864663	     -4.54657777	     -1.70063710	     12.05047117	      5.30603153	      3.18588418	     -6.74691579	    -14.55683905	      7.34207815	     -3.10510397	      2.53003153	     -8.58535381	     -2.49195623	     -5.14973925
     22.88500000	     -1.55855002	     -3.10140150	   -269.80697573	     -0.01443991	      0.12242075	     -1.86439550	     27.06406991	    -10.84541415	    -13.68710341	    -59.88070145	     -3.94287640	     -1.21774759	     11.87887078	      4.88537088	      3.14215093	     -6.56005475	    -14.27007496	      7.53363354	     -3.02286883	      2.57175453	     -8.62452489	     -2.28888517	     -5.52834804
     22.89000000	     -1.53240106	     -3.04203806	   -269.79234488	     -0.01453693	      0.12259456	     -1.86356366	     27.57677309	    -10.64259545	    -13.59145275	    -58.93195489	     -3.23066050	     -1.38360762	     10.05092742	      4.22677730	      3.14386713	     -6.55937740	    -13.84172524	      7.60363125	     -2.96814928	      2.70342832	     -8.76834572	     -2.20252915	     -5.68839144
     22.89500000	     -1.47505881	     -3.01786096	   -269.60393491	     -0.01488464	      0.12265029	     -1.86309540	     28.02059956	    -10.57341687	    -13.78965555	    -57.91230689	     -2.87868338	     -1.15837856	     10.07433663	      3.61441106	      3.12493805	     -6.42500795	    -13.45126366	      7.70066715	     -2.84727995	      2.71230340	     -8.83646789	     -2.05601922	     -6.01962816
     22.90000000	     -1.41789834	     -3.00801178	   -269.47364985	     -0.01516408	      0.12262410	     -1.86213809	     28.50658260	    -10.41895213	    -13.84280761	    -56.85525897	     -2.36509723	     -0.92568919	      9.99779323	      3.08799597	      3.09148045	     -6.38130949	    -13.12934337	      7.85071060	     -2.77581417	      2.70505997	     -8.95004332	     -1.91533475	     -6.28877706
     22.90500000	     -1.35994064	     -2.99939304	   -269.34895918	     -0.01538579	      0.12254757	     -1.86119586	     28.97866847	    -10.22026955	    -13.81672897	    -55.74319694	     -2.00233689	     -0.94069313	      9.94001228	      2.57054642	      3.04989443	     -6.29930073	    -12.81611125	      7.93243397	     -2.64945522	      2.72075457	     -9.06474102	     -1.77959686	     -6.55487737
     22.91000000	     -1.24099347	     -3.01852249	   -269.22598311	     -0.01556612	      0.12240637	     -1.86029036	     29.41950836	     -9.96853651	    -13.83882016	    -54.54143120	     -1.36957739	     -0.99203991	      8.56646066	      2.13641597	      2.89169042	     -6.53630989	    -12.57572150	      8.03143022	     -2.02395242	      3.12456382	     -9.13545431	     -1.59020362	     -6.75225625
     22.91500000	     -1.19269065	     -3.00862382	   -269.08946025	     -0.01587624	      0.12219974	     -1.85933717	     29.84321276	     -9.83621223	    -13.92419572	    -53.33024610	     -1.15043692	     -1.06619649	      8.37394338	      1.57409716	      2.95533196	     -5.79811345	    -12.36386087	      8.35817211	     -2.72045244	      3.03027661	     -9.25305310	     -1.44841174	     -7.04794450
     22.92000000	     -1.11200439	     -3.03426854	   -268.97507412	     -0.01598337	      0.12193776	     -1.85831953	     30.25720485	     -9.61889979	    -13.91512680	    -52.04539284	     -0.67949024	     -1.19586348	      7.75868755	      1.14980646	      2.84316052	     -6.02965134	    -12.10101975	      8.56312031	     -2.26816544	      2.83827667	     -9.33515711	     -1.29760755	     -7.24148844
     22.92500000	     -1.05006984	     -3.03686002	   -268.87382242	     -0.01611061	      0.12163917	     -1.85734594	     30.63343976	     -9.41544722	    -13.91647233	    -50.71557283	     -0.36899128	     -1.32300788	      7.73985605	      0.66455168	      2.79302061	     -5.94233372	    -11.85200702	      8.72338881	     -2.27692351	      2.85501963	     -9.44515523	     -1.16340063	     -7.47089729
     22.93000000	     -0.97280349	     -3.09450190	   -268.76435463	     -0.01619444	      0.12125667	     -1.85637125	     31.03307969	     -9.18147781	    -13.88861411	    -49.33852418	      0.07444419	     -1.64993319	      6.35348532	      0.28666351	      2.70720576	     -5.88403412	    -11.68897922	      9.02335691	     -2.16156409	      2.60878303	     -9.49315790	     -1.01840557	     -7.64766287
     22.93500000	     -0.92940551	     -3.11460053	   -268.65691169	     -0.01624292	      0.12081461	     -1.85541548	     31.36988650	     -8.99164006	    -13.84239285	    -47.94164284	      0.30127336	     -1.87139921	      6.39427495	     -0.15135921	      2.66462539	     -5.79013254	    -11.48908769	      9.22575192	     -2.17408866	      2.64898656	     -9.58513445	     -0.90614581	     -7.89307895
     22.94000000	     -0.86806538	     -3.16312146	   -268.54159119	     -0.01620972	      0.12032600	     -1.85448945	     31.70369984	     -8.77762400	    -13.83249200	    -46.48464758	      0.59657877	     -2.06865992	      6.39843515	     -0.53975827	      2.59563755	     -5.67048464	    -11.32886109	      9.37656335	     -2.06251617	      2.67230497	     -9.64371283	     -0.79368353	     -8.10837808
     22.94500000	     -0.82251534	     -3.19163312	   -268.44205625	     -0.01612744	      0.11982361	     -1.85354046	     31.99325316	     -8.56807216	    -13.77867445	    -44.99234510	      0.81503685	     -2.28318074	      6.36979338	     -0.95883517	      2.53748314	     -5.62896438	    -11.14981420	      9.60343057	     -2.01379986	      2.71650087	     -9.72608518	     -0.69186354	     -8.31235989
